<mxfile host="app.diagrams.net" modified="2024-02-28T16:51:06.243Z" agent="Mozilla/5.0 (Windows NT 10.0; Win64; x64) AppleWebKit/537.36 (KHTML, like Gecko) Chrome/121.0.0.0 Safari/537.36" etag="8TpEwWAihQwRfYKbbuVr" version="23.1.7" type="device">
  <diagram id="R2lEEEUBdFMjLlhIrx00" name="Page-1">
    <mxGraphModel dx="4435" dy="3050" grid="1" gridSize="10" guides="1" tooltips="1" connect="1" arrows="1" fold="1" page="1" pageScale="1" pageWidth="850" pageHeight="1100" math="0" shadow="0" extFonts="Permanent Marker^https://fonts.googleapis.com/css?family=Permanent+Marker">
      <root>
        <mxCell id="0" />
        <mxCell id="1" parent="0" />
        <mxCell id="C-vyLk0tnHw3VtMMgP7b-12" value="" style="edgeStyle=entityRelationEdgeStyle;endArrow=ERzeroToMany;startArrow=ERone;endFill=1;startFill=0;" parent="1" target="C-vyLk0tnHw3VtMMgP7b-17" edge="1">
          <mxGeometry width="100" height="100" relative="1" as="geometry">
            <mxPoint x="700" y="165" as="sourcePoint" />
            <mxPoint x="460" y="205" as="targetPoint" />
          </mxGeometry>
        </mxCell>
        <mxCell id="YDn4YrzobkGCN8rIE3ed-88" style="edgeStyle=orthogonalEdgeStyle;rounded=0;orthogonalLoop=1;jettySize=auto;html=1;entryX=0.5;entryY=1;entryDx=0;entryDy=0;" edge="1" parent="1" source="YDn4YrzobkGCN8rIE3ed-1" target="YDn4YrzobkGCN8rIE3ed-87">
          <mxGeometry relative="1" as="geometry">
            <Array as="points">
              <mxPoint x="590" y="10" />
              <mxPoint x="590" y="-95" />
            </Array>
          </mxGeometry>
        </mxCell>
        <mxCell id="YDn4YrzobkGCN8rIE3ed-92" style="edgeStyle=orthogonalEdgeStyle;rounded=0;orthogonalLoop=1;jettySize=auto;html=1;" edge="1" parent="1" source="YDn4YrzobkGCN8rIE3ed-1" target="YDn4YrzobkGCN8rIE3ed-90">
          <mxGeometry relative="1" as="geometry">
            <Array as="points">
              <mxPoint x="810" y="-40" />
              <mxPoint x="810" y="-40" />
            </Array>
          </mxGeometry>
        </mxCell>
        <mxCell id="YDn4YrzobkGCN8rIE3ed-96" style="edgeStyle=orthogonalEdgeStyle;rounded=0;orthogonalLoop=1;jettySize=auto;html=1;entryX=0.5;entryY=1;entryDx=0;entryDy=0;" edge="1" parent="1" source="YDn4YrzobkGCN8rIE3ed-1" target="YDn4YrzobkGCN8rIE3ed-89">
          <mxGeometry relative="1" as="geometry" />
        </mxCell>
        <mxCell id="YDn4YrzobkGCN8rIE3ed-101" style="edgeStyle=orthogonalEdgeStyle;rounded=0;orthogonalLoop=1;jettySize=auto;html=1;entryX=0.5;entryY=1;entryDx=0;entryDy=0;" edge="1" parent="1" source="YDn4YrzobkGCN8rIE3ed-1" target="YDn4YrzobkGCN8rIE3ed-98">
          <mxGeometry relative="1" as="geometry" />
        </mxCell>
        <mxCell id="YDn4YrzobkGCN8rIE3ed-103" style="edgeStyle=orthogonalEdgeStyle;rounded=0;orthogonalLoop=1;jettySize=auto;html=1;entryX=0.5;entryY=0;entryDx=0;entryDy=0;" edge="1" parent="1" source="YDn4YrzobkGCN8rIE3ed-1" target="YDn4YrzobkGCN8rIE3ed-9">
          <mxGeometry relative="1" as="geometry" />
        </mxCell>
        <mxCell id="YDn4YrzobkGCN8rIE3ed-1" value="detalles_pedido" style="rounded=0;whiteSpace=wrap;html=1;" vertex="1" parent="1">
          <mxGeometry x="730" y="-5" width="120" height="60" as="geometry" />
        </mxCell>
        <mxCell id="YDn4YrzobkGCN8rIE3ed-10" style="edgeStyle=orthogonalEdgeStyle;rounded=0;orthogonalLoop=1;jettySize=auto;html=1;entryX=1;entryY=0.5;entryDx=0;entryDy=0;" edge="1" parent="1" source="YDn4YrzobkGCN8rIE3ed-2" target="YDn4YrzobkGCN8rIE3ed-5">
          <mxGeometry relative="1" as="geometry" />
        </mxCell>
        <mxCell id="YDn4YrzobkGCN8rIE3ed-15" style="edgeStyle=orthogonalEdgeStyle;rounded=0;orthogonalLoop=1;jettySize=auto;html=1;entryX=1;entryY=0.5;entryDx=0;entryDy=0;" edge="1" parent="1" source="YDn4YrzobkGCN8rIE3ed-2" target="YDn4YrzobkGCN8rIE3ed-11">
          <mxGeometry relative="1" as="geometry">
            <Array as="points">
              <mxPoint x="-400" y="-365" />
            </Array>
          </mxGeometry>
        </mxCell>
        <mxCell id="YDn4YrzobkGCN8rIE3ed-16" style="edgeStyle=orthogonalEdgeStyle;rounded=0;orthogonalLoop=1;jettySize=auto;html=1;entryX=1;entryY=0.5;entryDx=0;entryDy=0;" edge="1" parent="1" source="YDn4YrzobkGCN8rIE3ed-2" target="YDn4YrzobkGCN8rIE3ed-12">
          <mxGeometry relative="1" as="geometry">
            <Array as="points">
              <mxPoint x="-380" y="-260" />
            </Array>
          </mxGeometry>
        </mxCell>
        <mxCell id="YDn4YrzobkGCN8rIE3ed-18" style="edgeStyle=orthogonalEdgeStyle;rounded=0;orthogonalLoop=1;jettySize=auto;html=1;entryX=1;entryY=0.5;entryDx=0;entryDy=0;" edge="1" parent="1" source="YDn4YrzobkGCN8rIE3ed-2" target="YDn4YrzobkGCN8rIE3ed-14">
          <mxGeometry relative="1" as="geometry">
            <Array as="points">
              <mxPoint x="-340" y="-45" />
            </Array>
          </mxGeometry>
        </mxCell>
        <mxCell id="YDn4YrzobkGCN8rIE3ed-2" value="Clientes" style="rounded=0;whiteSpace=wrap;html=1;" vertex="1" parent="1">
          <mxGeometry x="-440" y="-485" width="100" height="50" as="geometry" />
        </mxCell>
        <mxCell id="YDn4YrzobkGCN8rIE3ed-108" style="edgeStyle=orthogonalEdgeStyle;rounded=0;orthogonalLoop=1;jettySize=auto;html=1;entryX=0.5;entryY=0;entryDx=0;entryDy=0;" edge="1" parent="1" source="YDn4YrzobkGCN8rIE3ed-3" target="YDn4YrzobkGCN8rIE3ed-105">
          <mxGeometry relative="1" as="geometry" />
        </mxCell>
        <mxCell id="YDn4YrzobkGCN8rIE3ed-111" style="edgeStyle=orthogonalEdgeStyle;rounded=0;orthogonalLoop=1;jettySize=auto;html=1;" edge="1" parent="1" source="YDn4YrzobkGCN8rIE3ed-3" target="YDn4YrzobkGCN8rIE3ed-106">
          <mxGeometry relative="1" as="geometry">
            <Array as="points">
              <mxPoint x="780" y="410" />
              <mxPoint x="780" y="410" />
            </Array>
          </mxGeometry>
        </mxCell>
        <mxCell id="YDn4YrzobkGCN8rIE3ed-115" style="edgeStyle=orthogonalEdgeStyle;rounded=0;orthogonalLoop=1;jettySize=auto;html=1;entryX=0.5;entryY=0;entryDx=0;entryDy=0;" edge="1" parent="1" source="YDn4YrzobkGCN8rIE3ed-3" target="YDn4YrzobkGCN8rIE3ed-112">
          <mxGeometry relative="1" as="geometry">
            <Array as="points">
              <mxPoint x="910" y="370" />
            </Array>
          </mxGeometry>
        </mxCell>
        <mxCell id="YDn4YrzobkGCN8rIE3ed-117" style="edgeStyle=orthogonalEdgeStyle;rounded=0;orthogonalLoop=1;jettySize=auto;html=1;" edge="1" parent="1" source="YDn4YrzobkGCN8rIE3ed-3" target="YDn4YrzobkGCN8rIE3ed-113">
          <mxGeometry relative="1" as="geometry" />
        </mxCell>
        <mxCell id="YDn4YrzobkGCN8rIE3ed-3" value="productos" style="rounded=0;whiteSpace=wrap;html=1;" vertex="1" parent="1">
          <mxGeometry x="730" y="320" width="120" height="60" as="geometry" />
        </mxCell>
        <mxCell id="YDn4YrzobkGCN8rIE3ed-5" value="Cliente_id&lt;br&gt;(INT)" style="ellipse;whiteSpace=wrap;html=1;" vertex="1" parent="1">
          <mxGeometry x="-680" y="-500" width="120" height="80" as="geometry" />
        </mxCell>
        <mxCell id="YDn4YrzobkGCN8rIE3ed-36" style="edgeStyle=orthogonalEdgeStyle;rounded=0;orthogonalLoop=1;jettySize=auto;html=1;entryX=0.5;entryY=1;entryDx=0;entryDy=0;" edge="1" parent="1" source="YDn4YrzobkGCN8rIE3ed-8" target="YDn4YrzobkGCN8rIE3ed-20">
          <mxGeometry relative="1" as="geometry">
            <Array as="points">
              <mxPoint x="60" y="-67" />
              <mxPoint x="-20" y="-67" />
            </Array>
          </mxGeometry>
        </mxCell>
        <mxCell id="YDn4YrzobkGCN8rIE3ed-41" style="edgeStyle=orthogonalEdgeStyle;rounded=0;orthogonalLoop=1;jettySize=auto;html=1;entryX=0.5;entryY=1;entryDx=0;entryDy=0;" edge="1" parent="1" source="YDn4YrzobkGCN8rIE3ed-8" target="YDn4YrzobkGCN8rIE3ed-21">
          <mxGeometry relative="1" as="geometry">
            <Array as="points">
              <mxPoint x="85" y="-50" />
              <mxPoint x="85" y="-50" />
            </Array>
          </mxGeometry>
        </mxCell>
        <mxCell id="YDn4YrzobkGCN8rIE3ed-42" style="edgeStyle=orthogonalEdgeStyle;rounded=0;orthogonalLoop=1;jettySize=auto;html=1;entryX=0.5;entryY=1;entryDx=0;entryDy=0;" edge="1" parent="1" source="YDn4YrzobkGCN8rIE3ed-8" target="YDn4YrzobkGCN8rIE3ed-22">
          <mxGeometry relative="1" as="geometry">
            <Array as="points">
              <mxPoint x="120" y="-130" />
              <mxPoint x="180" y="-130" />
            </Array>
          </mxGeometry>
        </mxCell>
        <mxCell id="YDn4YrzobkGCN8rIE3ed-44" style="edgeStyle=orthogonalEdgeStyle;rounded=0;orthogonalLoop=1;jettySize=auto;html=1;" edge="1" parent="1" source="YDn4YrzobkGCN8rIE3ed-8" target="YDn4YrzobkGCN8rIE3ed-32">
          <mxGeometry relative="1" as="geometry">
            <Array as="points">
              <mxPoint x="130" y="-100" />
              <mxPoint x="260" y="-100" />
            </Array>
          </mxGeometry>
        </mxCell>
        <mxCell id="YDn4YrzobkGCN8rIE3ed-48" style="edgeStyle=orthogonalEdgeStyle;rounded=0;orthogonalLoop=1;jettySize=auto;html=1;entryX=0.5;entryY=1;entryDx=0;entryDy=0;" edge="1" parent="1" source="YDn4YrzobkGCN8rIE3ed-8" target="YDn4YrzobkGCN8rIE3ed-31">
          <mxGeometry relative="1" as="geometry">
            <Array as="points">
              <mxPoint x="270" />
              <mxPoint x="270" y="-110" />
              <mxPoint x="363" y="-110" />
            </Array>
          </mxGeometry>
        </mxCell>
        <mxCell id="YDn4YrzobkGCN8rIE3ed-49" style="edgeStyle=orthogonalEdgeStyle;rounded=0;orthogonalLoop=1;jettySize=auto;html=1;" edge="1" parent="1" source="YDn4YrzobkGCN8rIE3ed-8" target="YDn4YrzobkGCN8rIE3ed-33">
          <mxGeometry relative="1" as="geometry">
            <Array as="points">
              <mxPoint x="450" y="10" />
            </Array>
          </mxGeometry>
        </mxCell>
        <mxCell id="YDn4YrzobkGCN8rIE3ed-51" style="edgeStyle=orthogonalEdgeStyle;rounded=0;orthogonalLoop=1;jettySize=auto;html=1;entryX=0.5;entryY=0;entryDx=0;entryDy=0;" edge="1" parent="1" source="YDn4YrzobkGCN8rIE3ed-8" target="YDn4YrzobkGCN8rIE3ed-2">
          <mxGeometry relative="1" as="geometry">
            <Array as="points">
              <mxPoint x="-150" y="25" />
              <mxPoint x="-150" y="-540" />
              <mxPoint x="-390" y="-540" />
            </Array>
          </mxGeometry>
        </mxCell>
        <mxCell id="YDn4YrzobkGCN8rIE3ed-63" style="edgeStyle=orthogonalEdgeStyle;rounded=0;orthogonalLoop=1;jettySize=auto;html=1;entryX=0.5;entryY=0;entryDx=0;entryDy=0;" edge="1" parent="1" source="YDn4YrzobkGCN8rIE3ed-8" target="YDn4YrzobkGCN8rIE3ed-61">
          <mxGeometry relative="1" as="geometry" />
        </mxCell>
        <mxCell id="YDn4YrzobkGCN8rIE3ed-86" style="edgeStyle=orthogonalEdgeStyle;rounded=0;orthogonalLoop=1;jettySize=auto;html=1;entryX=0;entryY=0.5;entryDx=0;entryDy=0;" edge="1" parent="1" source="YDn4YrzobkGCN8rIE3ed-8" target="YDn4YrzobkGCN8rIE3ed-1">
          <mxGeometry relative="1" as="geometry" />
        </mxCell>
        <mxCell id="YDn4YrzobkGCN8rIE3ed-8" value="tiene pedidos" style="rhombus;whiteSpace=wrap;html=1;" vertex="1" parent="1">
          <mxGeometry x="40" y="-15" width="130" height="80" as="geometry" />
        </mxCell>
        <mxCell id="YDn4YrzobkGCN8rIE3ed-104" style="edgeStyle=orthogonalEdgeStyle;rounded=0;orthogonalLoop=1;jettySize=auto;html=1;entryX=0.5;entryY=0;entryDx=0;entryDy=0;" edge="1" parent="1" source="YDn4YrzobkGCN8rIE3ed-9" target="YDn4YrzobkGCN8rIE3ed-3">
          <mxGeometry relative="1" as="geometry" />
        </mxCell>
        <mxCell id="YDn4YrzobkGCN8rIE3ed-9" value="contiene" style="rhombus;whiteSpace=wrap;html=1;" vertex="1" parent="1">
          <mxGeometry x="726.25" y="140" width="127.5" height="80" as="geometry" />
        </mxCell>
        <mxCell id="YDn4YrzobkGCN8rIE3ed-11" value="nombre&lt;br&gt;(VARCHAR 50)" style="ellipse;whiteSpace=wrap;html=1;" vertex="1" parent="1">
          <mxGeometry x="-680" y="-405" width="120" height="80" as="geometry" />
        </mxCell>
        <mxCell id="YDn4YrzobkGCN8rIE3ed-12" value="apellido&lt;br&gt;(VARCHAR 50)" style="ellipse;whiteSpace=wrap;html=1;" vertex="1" parent="1">
          <mxGeometry x="-680" y="-300" width="120" height="80" as="geometry" />
        </mxCell>
        <mxCell id="YDn4YrzobkGCN8rIE3ed-13" value="telefono&lt;br&gt;(VARCHAR 50)" style="ellipse;whiteSpace=wrap;html=1;" vertex="1" parent="1">
          <mxGeometry x="-660" y="-195" width="120" height="80" as="geometry" />
        </mxCell>
        <mxCell id="YDn4YrzobkGCN8rIE3ed-14" value="direccion&lt;br&gt;(VARCHAR 50)" style="ellipse;whiteSpace=wrap;html=1;" vertex="1" parent="1">
          <mxGeometry x="-630" y="-85" width="120" height="80" as="geometry" />
        </mxCell>
        <mxCell id="YDn4YrzobkGCN8rIE3ed-17" style="edgeStyle=orthogonalEdgeStyle;rounded=0;orthogonalLoop=1;jettySize=auto;html=1;entryX=1;entryY=0.413;entryDx=0;entryDy=0;entryPerimeter=0;" edge="1" parent="1" source="YDn4YrzobkGCN8rIE3ed-2" target="YDn4YrzobkGCN8rIE3ed-13">
          <mxGeometry relative="1" as="geometry">
            <Array as="points">
              <mxPoint x="-360" y="-162" />
            </Array>
          </mxGeometry>
        </mxCell>
        <mxCell id="YDn4YrzobkGCN8rIE3ed-20" value="Cliente_id&lt;br&gt;(INT)" style="ellipse;whiteSpace=wrap;html=1;" vertex="1" parent="1">
          <mxGeometry x="-80" y="-200" width="120" height="80" as="geometry" />
        </mxCell>
        <mxCell id="YDn4YrzobkGCN8rIE3ed-21" value="fecha_pedido&lt;br&gt;(DATE)" style="ellipse;whiteSpace=wrap;html=1;" vertex="1" parent="1">
          <mxGeometry x="40" y="-200" width="90" height="70" as="geometry" />
        </mxCell>
        <mxCell id="YDn4YrzobkGCN8rIE3ed-22" value="pedido_id&lt;br&gt;(INT)" style="ellipse;whiteSpace=wrap;html=1;" vertex="1" parent="1">
          <mxGeometry x="130" y="-210" width="100" height="60" as="geometry" />
        </mxCell>
        <mxCell id="YDn4YrzobkGCN8rIE3ed-24" value="empleado_id&lt;br&gt;(INT)" style="ellipse;whiteSpace=wrap;html=1;" vertex="1" parent="1">
          <mxGeometry x="-230" y="100" width="120" height="80" as="geometry" />
        </mxCell>
        <mxCell id="YDn4YrzobkGCN8rIE3ed-31" value="estado&lt;br&gt;(VACHAR 20)" style="ellipse;whiteSpace=wrap;html=1;" vertex="1" parent="1">
          <mxGeometry x="320" y="-200" width="85" height="60" as="geometry" />
        </mxCell>
        <mxCell id="YDn4YrzobkGCN8rIE3ed-32" value="total&lt;br&gt;(DECIMAL10,2)" style="ellipse;whiteSpace=wrap;html=1;" vertex="1" parent="1">
          <mxGeometry x="230" y="-210" width="90" height="50" as="geometry" />
        </mxCell>
        <mxCell id="YDn4YrzobkGCN8rIE3ed-33" value="empleado_id&lt;br&gt;(INT)" style="ellipse;whiteSpace=wrap;html=1;" vertex="1" parent="1">
          <mxGeometry x="405" y="-190" width="85" height="50" as="geometry" />
        </mxCell>
        <mxCell id="YDn4YrzobkGCN8rIE3ed-75" style="edgeStyle=orthogonalEdgeStyle;rounded=0;orthogonalLoop=1;jettySize=auto;html=1;" edge="1" parent="1" source="YDn4YrzobkGCN8rIE3ed-61" target="YDn4YrzobkGCN8rIE3ed-24">
          <mxGeometry relative="1" as="geometry">
            <Array as="points">
              <mxPoint y="140" />
              <mxPoint y="140" />
            </Array>
          </mxGeometry>
        </mxCell>
        <mxCell id="YDn4YrzobkGCN8rIE3ed-76" style="edgeStyle=orthogonalEdgeStyle;rounded=0;orthogonalLoop=1;jettySize=auto;html=1;entryX=1;entryY=0.5;entryDx=0;entryDy=0;" edge="1" parent="1" source="YDn4YrzobkGCN8rIE3ed-61" target="YDn4YrzobkGCN8rIE3ed-65">
          <mxGeometry relative="1" as="geometry">
            <Array as="points">
              <mxPoint x="60" y="240" />
            </Array>
          </mxGeometry>
        </mxCell>
        <mxCell id="YDn4YrzobkGCN8rIE3ed-77" style="edgeStyle=orthogonalEdgeStyle;rounded=0;orthogonalLoop=1;jettySize=auto;html=1;entryX=1;entryY=0.5;entryDx=0;entryDy=0;" edge="1" parent="1" source="YDn4YrzobkGCN8rIE3ed-61" target="YDn4YrzobkGCN8rIE3ed-67">
          <mxGeometry relative="1" as="geometry">
            <Array as="points">
              <mxPoint x="90" y="340" />
            </Array>
          </mxGeometry>
        </mxCell>
        <mxCell id="YDn4YrzobkGCN8rIE3ed-81" style="edgeStyle=orthogonalEdgeStyle;rounded=0;orthogonalLoop=1;jettySize=auto;html=1;" edge="1" parent="1" source="YDn4YrzobkGCN8rIE3ed-61" target="YDn4YrzobkGCN8rIE3ed-68">
          <mxGeometry relative="1" as="geometry">
            <Array as="points">
              <mxPoint x="130" y="230" />
              <mxPoint x="130" y="230" />
            </Array>
          </mxGeometry>
        </mxCell>
        <mxCell id="YDn4YrzobkGCN8rIE3ed-83" style="edgeStyle=orthogonalEdgeStyle;rounded=0;orthogonalLoop=1;jettySize=auto;html=1;" edge="1" parent="1" source="YDn4YrzobkGCN8rIE3ed-61" target="YDn4YrzobkGCN8rIE3ed-82">
          <mxGeometry relative="1" as="geometry">
            <Array as="points">
              <mxPoint x="150" y="250" />
              <mxPoint x="270" y="250" />
            </Array>
          </mxGeometry>
        </mxCell>
        <mxCell id="YDn4YrzobkGCN8rIE3ed-85" style="edgeStyle=orthogonalEdgeStyle;rounded=0;orthogonalLoop=1;jettySize=auto;html=1;" edge="1" parent="1" source="YDn4YrzobkGCN8rIE3ed-61" target="YDn4YrzobkGCN8rIE3ed-84">
          <mxGeometry relative="1" as="geometry">
            <Array as="points">
              <mxPoint x="250" y="150" />
              <mxPoint x="250" y="150" />
            </Array>
          </mxGeometry>
        </mxCell>
        <mxCell id="YDn4YrzobkGCN8rIE3ed-61" value="&lt;font style=&quot;font-size: 19px;&quot;&gt;Empleados&lt;/font&gt;" style="rounded=0;whiteSpace=wrap;html=1;fontSize=25;" vertex="1" parent="1">
          <mxGeometry x="45" y="120" width="120" height="60" as="geometry" />
        </mxCell>
        <mxCell id="YDn4YrzobkGCN8rIE3ed-65" value="nombre&lt;br&gt;(VARCHAR 50)" style="ellipse;whiteSpace=wrap;html=1;" vertex="1" parent="1">
          <mxGeometry x="-220" y="200" width="120" height="80" as="geometry" />
        </mxCell>
        <mxCell id="YDn4YrzobkGCN8rIE3ed-67" value="apellido&lt;br&gt;(VARCHAR 50)" style="ellipse;whiteSpace=wrap;html=1;" vertex="1" parent="1">
          <mxGeometry x="-200" y="300" width="120" height="80" as="geometry" />
        </mxCell>
        <mxCell id="YDn4YrzobkGCN8rIE3ed-68" value="cargo&lt;br&gt;(VARCHAR 50)" style="ellipse;whiteSpace=wrap;html=1;" vertex="1" parent="1">
          <mxGeometry x="70" y="360" width="120" height="80" as="geometry" />
        </mxCell>
        <mxCell id="YDn4YrzobkGCN8rIE3ed-82" value="fecha de contratacion&lt;br&gt;(DATE)" style="ellipse;whiteSpace=wrap;html=1;" vertex="1" parent="1">
          <mxGeometry x="200" y="360" width="140" height="70" as="geometry" />
        </mxCell>
        <mxCell id="YDn4YrzobkGCN8rIE3ed-84" value="salario&lt;br&gt;(DECIMAL10,2)" style="ellipse;whiteSpace=wrap;html=1;" vertex="1" parent="1">
          <mxGeometry x="285" y="117.5" width="120" height="65" as="geometry" />
        </mxCell>
        <mxCell id="YDn4YrzobkGCN8rIE3ed-87" value="detalle_id&lt;br&gt;(INT)" style="ellipse;whiteSpace=wrap;html=1;" vertex="1" parent="1">
          <mxGeometry x="540" y="-160" width="100" height="65" as="geometry" />
        </mxCell>
        <mxCell id="YDn4YrzobkGCN8rIE3ed-89" value="pedido_id&lt;br&gt;(INT)" style="ellipse;whiteSpace=wrap;html=1;" vertex="1" parent="1">
          <mxGeometry x="640" y="-175" width="100" height="60" as="geometry" />
        </mxCell>
        <mxCell id="YDn4YrzobkGCN8rIE3ed-90" value="producto_id&lt;br&gt;(INT)" style="ellipse;whiteSpace=wrap;html=1;" vertex="1" parent="1">
          <mxGeometry x="740" y="-185" width="100" height="60" as="geometry" />
        </mxCell>
        <mxCell id="YDn4YrzobkGCN8rIE3ed-94" value="cantidad&lt;br&gt;(INT)" style="ellipse;whiteSpace=wrap;html=1;" vertex="1" parent="1">
          <mxGeometry x="840" y="-190" width="100" height="60" as="geometry" />
        </mxCell>
        <mxCell id="YDn4YrzobkGCN8rIE3ed-95" style="edgeStyle=orthogonalEdgeStyle;rounded=0;orthogonalLoop=1;jettySize=auto;html=1;entryX=0.555;entryY=0.974;entryDx=0;entryDy=0;entryPerimeter=0;" edge="1" parent="1" source="YDn4YrzobkGCN8rIE3ed-1" target="YDn4YrzobkGCN8rIE3ed-94">
          <mxGeometry relative="1" as="geometry">
            <Array as="points">
              <mxPoint x="840" y="-67" />
              <mxPoint x="896" y="-67" />
            </Array>
          </mxGeometry>
        </mxCell>
        <mxCell id="YDn4YrzobkGCN8rIE3ed-97" value="precio_unitario&lt;br&gt;(DECIMAL10,2)" style="ellipse;whiteSpace=wrap;html=1;" vertex="1" parent="1">
          <mxGeometry x="990" y="-185" width="120" height="65" as="geometry" />
        </mxCell>
        <mxCell id="YDn4YrzobkGCN8rIE3ed-98" value="subtotal&lt;br&gt;(DECIMAL10,2)" style="ellipse;whiteSpace=wrap;html=1;" vertex="1" parent="1">
          <mxGeometry x="1020" y="-60" width="120" height="65" as="geometry" />
        </mxCell>
        <mxCell id="YDn4YrzobkGCN8rIE3ed-99" style="edgeStyle=orthogonalEdgeStyle;rounded=0;orthogonalLoop=1;jettySize=auto;html=1;entryX=0.019;entryY=0.634;entryDx=0;entryDy=0;entryPerimeter=0;" edge="1" parent="1" source="YDn4YrzobkGCN8rIE3ed-1" target="YDn4YrzobkGCN8rIE3ed-97">
          <mxGeometry relative="1" as="geometry">
            <Array as="points">
              <mxPoint x="950" />
              <mxPoint x="950" y="-144" />
            </Array>
          </mxGeometry>
        </mxCell>
        <mxCell id="YDn4YrzobkGCN8rIE3ed-105" value="producto_id&lt;br&gt;(INT)" style="ellipse;whiteSpace=wrap;html=1;" vertex="1" parent="1">
          <mxGeometry x="480" y="380" width="120" height="80" as="geometry" />
        </mxCell>
        <mxCell id="YDn4YrzobkGCN8rIE3ed-106" value="descripcion&lt;br&gt;(varchar)" style="ellipse;whiteSpace=wrap;html=1;" vertex="1" parent="1">
          <mxGeometry x="720" y="490" width="120" height="80" as="geometry" />
        </mxCell>
        <mxCell id="YDn4YrzobkGCN8rIE3ed-107" value="nombre&lt;br&gt;(VARCHAR 50)" style="ellipse;whiteSpace=wrap;html=1;" vertex="1" parent="1">
          <mxGeometry x="590" y="460" width="120" height="80" as="geometry" />
        </mxCell>
        <mxCell id="YDn4YrzobkGCN8rIE3ed-109" style="edgeStyle=orthogonalEdgeStyle;rounded=0;orthogonalLoop=1;jettySize=auto;html=1;entryX=0.431;entryY=-0.021;entryDx=0;entryDy=0;entryPerimeter=0;" edge="1" parent="1" source="YDn4YrzobkGCN8rIE3ed-3" target="YDn4YrzobkGCN8rIE3ed-107">
          <mxGeometry relative="1" as="geometry">
            <Array as="points">
              <mxPoint x="642" y="370" />
            </Array>
          </mxGeometry>
        </mxCell>
        <mxCell id="YDn4YrzobkGCN8rIE3ed-112" value="precio&lt;br&gt;(DECIMAL10,2)" style="ellipse;whiteSpace=wrap;html=1;" vertex="1" parent="1">
          <mxGeometry x="850" y="490" width="120" height="65" as="geometry" />
        </mxCell>
        <mxCell id="YDn4YrzobkGCN8rIE3ed-113" value="existencias&lt;br&gt;(INT)" style="ellipse;whiteSpace=wrap;html=1;" vertex="1" parent="1">
          <mxGeometry x="970" y="320" width="110" height="60" as="geometry" />
        </mxCell>
        <mxCell id="YDn4YrzobkGCN8rIE3ed-118" value="1:N" style="text;html=1;align=center;verticalAlign=middle;resizable=0;points=[];autosize=1;strokeColor=none;fillColor=none;fontSize=24;fontStyle=1;fontFamily=Comic Sans MS;" vertex="1" parent="1">
          <mxGeometry x="-135" y="-325" width="70" height="40" as="geometry" />
        </mxCell>
        <mxCell id="YDn4YrzobkGCN8rIE3ed-119" value="1:N" style="text;html=1;align=center;verticalAlign=middle;resizable=0;points=[];autosize=1;strokeColor=none;fillColor=none;fontSize=19;fontStyle=1;fontFamily=Comic Sans MS;" vertex="1" parent="1">
          <mxGeometry x="490" y="-15" width="60" height="40" as="geometry" />
        </mxCell>
        <mxCell id="YDn4YrzobkGCN8rIE3ed-120" value="1:N" style="text;html=1;align=center;verticalAlign=middle;resizable=0;points=[];autosize=1;strokeColor=none;fillColor=none;fontSize=16;fontStyle=1;fontFamily=Comic Sans MS;" vertex="1" parent="1">
          <mxGeometry x="125" y="70" width="50" height="30" as="geometry" />
        </mxCell>
        <mxCell id="YDn4YrzobkGCN8rIE3ed-122" value="1:N" style="text;html=1;align=center;verticalAlign=middle;resizable=0;points=[];autosize=1;strokeColor=none;fillColor=none;fontSize=16;fontStyle=1;fontFamily=Comic Sans MS;" vertex="1" parent="1">
          <mxGeometry x="800" y="250" width="50" height="30" as="geometry" />
        </mxCell>
      </root>
    </mxGraphModel>
  </diagram>
</mxfile>
